<svg width="13" height="13" viewBox="0 0 13 13" fill="none" xmlns="http://www.w3.org/2000/svg">
<path fill-rule="evenodd" clip-rule="evenodd" d="M9.8733 2.44897C9.87357 2.44905 9.8738 2.44918 9.87428 2.44966L10.5503 3.12571C10.5508 3.12619 10.5509 3.12642 10.551 3.1267C10.5511 3.12696 10.5511 3.12724 10.551 3.12751C10.5509 3.12778 10.5508 3.128 10.5503 3.12848L7.17882 6.5L10.5503 9.87152C10.5508 9.87199 10.5509 9.87222 10.551 9.87249C10.5511 9.87276 10.5511 9.87304 10.551 9.87331C10.5509 9.87357 10.5508 9.8738 10.5503 9.87428L9.87428 10.5503C9.8738 10.5508 9.87358 10.5509 9.8733 10.551C9.87304 10.5511 9.87275 10.5511 9.87249 10.551C9.87222 10.5509 9.872 10.5508 9.87152 10.5503L6.5 7.17882L3.12848 10.5503C3.12801 10.5508 3.12778 10.5509 3.12751 10.551C3.12724 10.5511 3.12695 10.5511 3.12669 10.551C3.12643 10.5509 3.12619 10.5508 3.12571 10.5503L2.44966 9.87428C2.44918 9.8738 2.44905 9.87358 2.44897 9.8733C2.44889 9.87304 2.44889 9.87275 2.44897 9.87249C2.44905 9.87222 2.44918 9.872 2.44966 9.87152L5.82117 6.5L2.44966 3.12848C2.44918 3.12801 2.44905 3.12778 2.44897 3.12751C2.44889 3.12724 2.44889 3.12695 2.44897 3.12669C2.44905 3.12643 2.44918 3.12619 2.44966 3.12571L3.12571 2.44966C3.12619 2.44918 3.12642 2.44905 3.1267 2.44897C3.12696 2.44889 3.12724 2.44889 3.12751 2.44897C3.12778 2.44905 3.128 2.44918 3.12848 2.44966L6.5 5.82117L9.87152 2.44966C9.87199 2.44918 9.87222 2.44905 9.87249 2.44897C9.87276 2.44889 9.87304 2.44889 9.87331 2.44897H9.8733Z" fill="black"/>
</svg>
